<?xml version="1.0" encoding="utf-8"?>
<!-- Generator: Adobe Illustrator 27.0.0, SVG Export Plug-In . SVG Version: 6.00 Build 0)  -->
<svg version="1.1" id="Layer_1" xmlns="http://www.w3.org/2000/svg" xmlns:xlink="http://www.w3.org/1999/xlink" x="0px" y="0px"
	 viewBox="0 0 108.51 100" enable-background="new 0 0 108.51 100" xml:space="preserve">
<g display="none">
	<path display="inline" d="M-116.1,43.11c0-1.2-0.12-2.33-0.37-3.38c-0.25-1.05-0.76-1.86-1.53-2.45l6.16-0.93v18.16
		c0,0.19,0.1,0.29,0.29,0.29c0.12,0,0.39-0.24,0.81-0.73c0.42-0.48,0.97-1.01,1.65-1.58c0.67-0.57,1.48-1.09,2.43-1.58
		c0.95-0.49,2.02-0.73,3.21-0.73c1.73,0,3.2,0.42,4.39,1.25c1.2,0.84,2.15,1.9,2.87,3.21s1.23,2.74,1.56,4.31
		c0.33,1.57,0.49,3.12,0.49,4.63c0,1.95-0.24,3.79-0.72,5.54c-0.48,1.75-1.21,3.28-2.19,4.61c-0.98,1.32-2.24,2.37-3.78,3.14
		c-1.54,0.78-3.36,1.17-5.48,1.17c-0.92,0-1.77-0.05-2.54-0.15c-0.77-0.1-1.53-0.21-2.28-0.32c-0.75-0.12-1.54-0.22-2.36-0.32
		c-0.83-0.1-1.76-0.15-2.8-0.15c0.06-2.45,0.11-4.88,0.15-7.31c0.03-2.42,0.05-4.86,0.05-7.3V43.11z M-99.16,60.85
		c-0.25-1.3-0.63-2.48-1.15-3.53c-0.52-1.05-1.21-1.9-2.08-2.56c-0.87-0.66-1.89-0.99-3.09-0.99c-2.04,0-3.61,0.81-4.71,2.42
		c-1.1,1.61-1.65,3.82-1.65,6.62v4.49c0,1.17,0.06,2.27,0.17,3.32c0.11,1.05,0.37,1.96,0.78,2.74c0.41,0.77,0.99,1.4,1.76,1.86
		c0.77,0.47,1.83,0.7,3.18,0.7c1.46,0,2.67-0.36,3.61-1.08c0.94-0.72,1.68-1.63,2.2-2.74c0.52-1.11,0.88-2.32,1.07-3.64
		c0.19-1.32,0.29-2.58,0.29-3.79C-98.79,63.43-98.91,62.15-99.16,60.85z"/>
	<path display="inline" d="M-87.06,47.64c0-1.31-0.05-2.66-0.15-4.03c-0.1-1.37-0.47-2.56-1.12-3.57h7.76
		c-0.65,1-1.03,2.19-1.12,3.56c-0.1,1.37-0.15,2.71-0.15,4.03v9.04c0.69-0.11,1.41-0.44,2.16-0.99c0.75-0.54,1.52-1.2,2.31-1.97
		c0.79-0.77,1.57-1.61,2.34-2.52c0.77-0.91,1.52-1.79,2.25-2.64c1.57-1.85,2.82-3.38,3.74-4.58c0.92-1.2,1.38-2.14,1.38-2.84
		c0-0.23,0-0.44,0-0.64c0-0.19-0.02-0.35-0.06-0.46h7.15c-1.34,1.2-2.6,2.3-3.78,3.3c-1.17,1.01-2.39,2.2-3.66,3.59l-8.94,9.74
		l9.57,13.78c0.77,1.12,1.61,2.26,2.54,3.4c0.92,1.15,1.83,2.22,2.71,3.23h-6.05c-0.54,0-0.96-0.15-1.27-0.44
		c-0.31-0.29-0.62-0.67-0.92-1.14L-80.74,59.7c-0.12-0.19-0.26-0.4-0.44-0.61c-0.17-0.21-0.31-0.32-0.43-0.32
		c-0.12,0-0.18,0.06-0.2,0.18c-0.02,0.11-0.03,0.23-0.03,0.35v10.17c0,1.32,0.05,2.67,0.15,4.04c0.1,1.37,0.47,2.57,1.12,3.57h-7.76
		c0.65-1.01,1.02-2.19,1.12-3.57c0.1-1.37,0.15-2.72,0.15-4.03V47.64z"/>
	<path display="inline" d="M-44.61,77.46c-0.27-1.09-0.43-1.96-0.49-2.62c-0.06-0.66-0.2-0.98-0.43-0.98
		c-0.12,0-0.19,0.02-0.23,0.06c-0.04,0.04-0.08,0.08-0.11,0.12c-0.39,0.54-0.76,1.06-1.13,1.54c-0.37,0.49-0.8,0.91-1.31,1.28
		c-0.5,0.37-1.1,0.66-1.8,0.87c-0.7,0.21-1.55,0.32-2.55,0.32c-2.01,0-3.71-0.54-5.1-1.63c-1.39-1.09-2.09-2.69-2.09-4.83
		c0-1.28,0.35-2.38,1.07-3.29c0.71-0.91,1.6-1.72,2.66-2.41c1.06-0.7,2.2-1.31,3.41-1.83c1.21-0.52,2.3-1.02,3.27-1.48
		c0.81-0.39,1.48-0.72,2.02-0.99c0.54-0.27,0.96-0.59,1.27-0.94c0.31-0.35,0.52-0.8,0.63-1.34c0.11-0.55,0.18-1.28,0.18-2.22
		c0-1.44-0.33-2.66-0.98-3.65c-0.65-1-1.83-1.49-3.52-1.49c-1.38,0-2.34,0.29-2.88,0.87c-0.54,0.58-0.95,1.22-1.24,1.92
		c-0.29,0.7-0.61,1.34-0.95,1.92c-0.35,0.58-0.98,0.87-1.9,0.87c-0.66,0-1.18-0.16-1.56-0.5c-0.38-0.33-0.57-0.84-0.57-1.54
		c0-0.97,0.33-1.79,0.98-2.47c0.65-0.68,1.48-1.23,2.48-1.66c1-0.42,2.1-0.72,3.32-0.9c1.21-0.17,2.37-0.26,3.49-0.26
		c1.04,0,2.02,0.07,2.94,0.2c0.92,0.14,1.73,0.38,2.42,0.73c0.69,0.35,1.24,0.84,1.64,1.46c0.4,0.62,0.6,1.4,0.6,2.33v12.81
		c0,1.75,0.05,3.45,0.14,5.1c0.1,1.65,0.59,3.08,1.47,4.28L-44.61,77.46z M-53.76,73.74c0.83,0.68,1.9,1.02,3.21,1.02
		c0.85,0,1.6-0.18,2.26-0.55c0.66-0.37,1.21-0.85,1.65-1.45c0.44-0.6,0.77-1.28,0.99-2.06c0.21-0.77,0.32-1.57,0.32-2.38v-5.85
		l-3.13,1.57c-1.08,0.54-2.03,1.03-2.84,1.47c-0.81,0.45-1.5,0.91-2.06,1.39c-0.56,0.48-0.98,1.03-1.25,1.63
		c-0.27,0.6-0.41,1.3-0.41,2.11C-55,72.03-54.59,73.07-53.76,73.74z"/>
	<path display="inline" d="M-30.04,58.4c0.6,0.78,1.34,1.47,2.22,2.07c0.89,0.6,1.85,1.17,2.88,1.69c1.04,0.52,2,1.13,2.88,1.8
		c0.88,0.68,1.62,1.47,2.22,2.36c0.6,0.89,0.89,2.02,0.89,3.38c0,1.4-0.3,2.61-0.89,3.64c-0.6,1.03-1.39,1.89-2.37,2.59
		c-0.98,0.7-2.08,1.22-3.29,1.57c-1.21,0.35-2.44,0.53-3.67,0.53c-1.16,0-2.25-0.11-3.26-0.32c-1.02-0.21-2.07-0.53-3.15-0.96
		c-0.31-0.11-0.55-0.25-0.72-0.41c-0.17-0.15-0.26-0.45-0.26-0.87c0-0.7,0.04-1.4,0.12-2.1c0.08-0.7,0.14-1.42,0.18-2.16
		c0.46,0.73,0.9,1.39,1.33,1.97c0.42,0.58,0.9,1.07,1.44,1.48c0.54,0.41,1.15,0.71,1.82,0.92c0.67,0.21,1.49,0.32,2.46,0.32
		c1.73,0,3.08-0.4,4.02-1.22c0.95-0.82,1.42-2.06,1.42-3.73c0-1.16-0.28-2.14-0.83-2.94c-0.56-0.8-1.26-1.5-2.1-2.09
		c-0.85-0.6-1.77-1.17-2.77-1.69c-1-0.52-1.92-1.12-2.77-1.8c-0.85-0.68-1.55-1.49-2.1-2.44c-0.56-0.95-0.84-2.14-0.84-3.58
		c0-2.21,0.78-3.8,2.33-4.77c1.56-0.97,3.7-1.45,6.42-1.45c0.88,0,1.76,0.07,2.62,0.2c0.86,0.14,1.74,0.3,2.62,0.5
		c0.08,0.04,0.22,0.09,0.43,0.15c0.21,0.06,0.32,0.19,0.32,0.38c0,0.54-0.01,1.19-0.03,1.92c-0.02,0.74-0.05,1.41-0.08,2.04
		c-0.58-0.7-1.09-1.28-1.53-1.72c-0.44-0.45-0.89-0.8-1.35-1.05c-0.46-0.25-0.94-0.43-1.44-0.52c-0.5-0.1-1.08-0.15-1.73-0.15
		c-1.12,0-2.12,0.28-3,0.85c-0.89,0.56-1.33,1.47-1.33,2.71C-30.94,56.65-30.64,57.63-30.04,58.4z"/>
	<path display="inline" d="M6.11,70.79c0,1.09,0.04,2.2,0.12,3.35c0.08,1.14,0.35,2.12,0.81,2.94H1.85V61.1
		c0-0.93-0.05-1.87-0.15-2.8c-0.1-0.94-0.33-1.77-0.7-2.51c-0.37-0.74-0.89-1.34-1.57-1.81c-0.68-0.47-1.6-0.7-2.76-0.7
		c-1.16,0-2.09,0.24-2.79,0.7c-0.7,0.47-1.25,1.09-1.66,1.86c-0.41,0.78-0.68,1.65-0.82,2.63c-0.14,0.97-0.2,1.94-0.2,2.91v9.39
		c0,1.09,0.04,2.21,0.12,3.35c0.08,1.15,0.4,2.13,0.95,2.94h-6.36c0.54-0.81,0.84-1.79,0.92-2.94c0.08-1.14,0.12-2.26,0.12-3.34
		V43.11c0-1.2-0.06-2.33-0.17-3.37c-0.12-1.05-0.56-1.86-1.33-2.44l5.75-0.93v16.45c0,0.23,0.01,0.44,0.02,0.64
		c0.02,0.19,0.07,0.29,0.17,0.29c0.11,0,0.34-0.18,0.67-0.55c0.33-0.37,0.8-0.77,1.42-1.22s1.38-0.85,2.3-1.22
		c0.91-0.37,1.99-0.55,3.22-0.55c2.21,0,3.94,0.58,5.2,1.75c1.26,1.16,1.89,3.1,1.89,5.82V70.79z"/>
</g>
<g>
	<polygon fill="#D83868" points="0.58,0 49.52,6.38 37.91,47 	"/>
	<path fill="#D83868" d="M51.26,6.58l36.36,48.36L45.65,75.05l-5.22-21.28c0,0-1.35-7.74,0.77-13.73L51.26,6.58z"/>
	<polygon fill="#B11116" points="88.97,54.55 75.44,35.59 98.26,31.72 	"/>
	<polygon fill="#B11116" points="100,31.72 108.51,40.81 96.13,40.81 	"/>
	<polygon fill="#D93B2B" points="53,73.69 87.62,56.48 86.46,60.54 	"/>
	<polygon fill="#9E0B0F" points="37.91,51.26 23.4,100 45.45,82.59 	"/>
	<polygon fill="#B11116" points="19.54,26.11 5.42,8.12 0,8.32 	"/>
	<path fill="#C4161C" d="M40.12,51.08c0.12,1.63,0.31,2.69,0.31,2.69l5.22,21.28l41.97-20.12l-0.38-0.51L40.12,51.08z"/>
</g>
<rect x="-301.92" y="-803.68" fill="none" stroke="#000000" width="595.28" height="377.59"/>
</svg>
