<?xml version="1.0" encoding="utf-8"?>
<!-- Generator: Adobe Illustrator 27.0.0, SVG Export Plug-In . SVG Version: 6.00 Build 0)  -->
<svg version="1.1" id="Layer_1" xmlns="http://www.w3.org/2000/svg" xmlns:xlink="http://www.w3.org/1999/xlink" x="0px" y="0px"
	 viewBox="0 0 100 100" enable-background="new 0 0 100 100" xml:space="preserve">
<rect fill="#330000" width="100" height="100"/>
<g>
	<path fill="#FF9A00" d="M30.05,61.51l-6.42,19.44h-8.25l21-61.81h9.63L67.1,80.95h-8.53l-6.6-19.44H30.05z M50.32,55.27
		l-6.05-17.79c-1.38-4.03-2.29-7.7-3.21-11.28h-0.18c-0.92,3.67-1.93,7.43-3.12,11.19L31.7,55.27H50.32z"/>
	<path fill="#FF9A00" d="M84.62,24.09c0.09,2.75-1.93,4.95-5.13,4.95c-2.84,0-4.86-2.2-4.86-4.95c0-2.84,2.11-5.04,5.04-5.04
		C82.69,19.05,84.62,21.25,84.62,24.09z M75.63,80.95V36.56h8.07v44.39H75.63z"/>
</g>
</svg>
