<?xml version="1.0" encoding="utf-8"?>
<!-- Generator: Adobe Illustrator 27.0.0, SVG Export Plug-In . SVG Version: 6.00 Build 0)  -->
<svg version="1.1" id="Layer_1" xmlns="http://www.w3.org/2000/svg" xmlns:xlink="http://www.w3.org/1999/xlink" x="0px" y="0px"
	 viewBox="0 0 100 100" enable-background="new 0 0 100 100" xml:space="preserve">
<path fill="#2F7FED" d="M93.65,5.48H6.35C2.84,5.48,0,8.73,0,12.75v74.51c0,4.01,2.84,7.27,6.35,7.27h87.3
	c3.51,0,6.35-3.25,6.35-7.27V12.75C100,8.73,97.16,5.48,93.65,5.48z M93.65,12.75v52.87L81.14,52.59c-1.88-1.96-4.77-1.88-6.57,0.18
	L61.9,67.26L36.93,33.12c-1.89-2.58-5.34-2.61-7.26-0.06L6.35,64.1V12.75H93.65z M66.67,31.83c0-5.52,3.91-9.99,8.73-9.99
	c4.82,0,8.73,4.47,8.73,9.99c0,5.52-3.91,9.99-8.73,9.99C70.57,41.82,66.67,37.35,66.67,31.83z"/>
</svg>
