<?xml version="1.0" encoding="utf-8"?>
<!-- Generator: Adobe Illustrator 27.0.0, SVG Export Plug-In . SVG Version: 6.00 Build 0)  -->
<svg version="1.1"
	 id="Layer_1" xmlns:sodipodi="http://sodipodi.sourceforge.net/DTD/sodipodi-0.dtd" xmlns:dc="http://purl.org/dc/elements/1.1/" xmlns:rdf="http://www.w3.org/1999/02/22-rdf-syntax-ns#" xmlns:cc="http://creativecommons.org/ns#" xmlns:svg="http://www.w3.org/2000/svg" xmlns:inkscape="http://www.inkscape.org/namespaces/inkscape" sodipodi:docname="Nagad Logo 2019.svg"
	 xmlns="http://www.w3.org/2000/svg" xmlns:xlink="http://www.w3.org/1999/xlink" x="0px" y="0px" viewBox="0 0 102.97 100"
	 enable-background="new 0 0 102.97 100" xml:space="preserve">
<sodipodi:namedview  bordercolor="#666666" borderopacity="1" gridtolerance="10" guidetolerance="10" id="namedview1452" inkscape:current-layer="Layer_1" inkscape:cx="105.93355" inkscape:cy="33.742072" inkscape:pageopacity="0" inkscape:pageshadow="2" inkscape:window-height="705" inkscape:window-maximized="1" inkscape:window-width="1366" inkscape:window-x="-8" inkscape:window-y="-8" inkscape:zoom="1.8101934" objecttolerance="10" pagecolor="#ffffff" showgrid="false">
	</sodipodi:namedview>
<g id="g1390" display="none">
	<path id="path1386" inkscape:connector-curvature="0" display="inline" fill="#ED1C24" d="M193.57,35.34h-52.41
		c-1.04,0-1.56,0.78-1.56,1.56v4.15c0,1.04,0.78,1.56,1.56,1.56h39.18v21.8c-1.04-1.56-2.34-3.11-3.63-4.67
		c-4.67-4.67-9.6-7.01-14.79-7.01c-4.15,0-7.52,2.08-10.38,5.71c-2.34,3.11-3.63,6.75-3.63,10.12c0,3.37,0.52,7.78,3.11,11.94
		c3.11,4.93,8.3,6.49,12.97,6.49c5.97,0,10.9-4.15,10.9-9.6c0-3.11-1.56-5.71-4.41-7.52l-2.85-1.56v3.37c0,0.26,0,0.52,0,0.78
		s0,0.52,0,0.52c-0.26,1.3-2.34,3.11-4.67,3.11c-2.08,0-3.89-0.78-5.19-2.08c-0.78-0.78-1.3-2.34-1.04-3.37
		c0-1.56,0.52-2.85,1.56-4.15c1.3-1.56,2.59-2.34,4.67-2.34c5.19,0,9.6,2.34,13.23,7.52c2.85,4.41,4.41,8.56,4.41,13.23v10.9
		l7.78,4.67c0.26,0.26,0.52,0.26,0.78,0.26c1.04,0,1.56-0.78,1.56-1.56l0,0V42.86h3.11c1.04,0,1.56-0.78,1.56-1.56v-4.15
		C195.38,36.12,194.6,35.34,193.57,35.34z"/>
	<path id="path1388" inkscape:connector-curvature="0" display="inline" fill="#ED1C24" d="M298.39,35.34h-46.7h-6.23h-13.49
		c-1.04,0-1.56,0.78-1.56,1.56l0,0v7.27c-6.49-6.75-12.2-10.12-17.38-10.12c-4.93,0-9.08,1.04-12.71,3.89
		c-3.37,2.59-5.45,5.97-5.45,9.86c0,11.68,12.97,11.42,16.35,9.86c0.52-0.26,1.3-0.78,2.08-0.78c2.59,0,3.63,2.08,3.63,3.89
		c0,2.59-3.89,4.93-8.56,4.93c-2.59,0-4.15-0.78-5.19-2.34l-2.08-3.11l-1.3,3.63c-0.26,0.78-0.78,1.82-0.78,3.11
		c0,2.59,1.3,5.19,3.89,7.52c2.34,2.08,5.19,3.11,8.3,3.11c4.93,0,9.08-1.82,11.68-5.45c2.34-2.85,3.37-6.23,3.37-10.12
		c0-2.08-0.78-4.41-2.59-7.01c-2.08-3.11-4.67-4.67-7.52-4.67c-1.04,0-2.34,0.26-3.63,0.78c-0.52,0.26-1.56,0.52-1.82,0.52
		c-0.52,0-1.3-0.26-1.82-1.04c-0.52-0.52-1.04-1.3-1.04-2.59c0-2.85,2.59-5.71,7.27-5.71h0.26c3.11,0,6.23,1.56,9.08,4.41
		c2.34,2.34,4.15,4.67,5.71,7.27v41.26l7.78,4.67c0.26,0.26,0.52,0.26,0.78,0.26c1.04,0,1.56-0.78,1.56-1.56l0,0V42.86h4.93h6.23
		h0.78v36.07l9.34,3.89c0.26,0,0.52,0,0.52,0c0.78,0,1.56-0.52,1.56-1.56v-0.26c1.56-10.64,6.23-17.9,14.01-22.31
		c0,0.52,0,1.3,0,2.08c0,1.56,0,5.45,0.26,7.52c0,1.3,0,2.08,0.26,2.85l0,0c0,4.15,0.52,10.38,1.82,15.05
		c2.59,8.82,7.01,10.9,10.12,10.9h0.26c1.82,0,3.37-0.52,4.41-1.56c0.52-0.52,1.3-1.56,1.3-3.37c0-1.56-0.26-2.85-0.78-3.89
		l-0.78-1.3l-1.56,0.26c-1.56,0.52-2.34,0.52-2.34,0.26h-0.26c-0.52,0-0.52,0-0.78-0.26c-0.52-0.26-1.56-1.04-2.34-3.89
		c-0.52-2.08-0.78-4.93-0.78-6.49c0-11.68,2.34-20.5,6.23-22.31h0.26c0.52-0.26,1.04-0.78,1.04-1.56c0-0.26,0-0.52-0.26-0.78v-0.26
		c-1.82-3.63-5.71-6.23-10.9-7.52h-0.52h-0.52c-4.15,0.78-9.08,3.63-15.31,8.82c-1.56,1.3-3.11,2.59-4.41,3.89V42.86h36.33
		c1.04,0,1.56-0.78,1.56-1.56v-4.15C300.21,36.12,299.43,35.34,298.39,35.34L298.39,35.34z"/>
</g>
<g>
	<path id="path1392" inkscape:connector-curvature="0" fill="#ED1C24" d="M93.47,53.47c0,1.39,0,2.57-0.2,3.76
		c-0.4,5.54-1.78,10.69-3.96,15.45c-0.79,1.98-1.78,3.76-2.97,5.54C78.02,91.29,63.37,100,46.73,100c-7.13,0-13.86-1.58-19.8-4.36
		C11.09,88.32,0,72.08,0,53.47c0-18.42,10.69-34.26,25.94-41.78c-1.19,1.58-2.38,3.17-3.37,4.95c0,0.2-0.2,0.2-0.2,0.4l0,0
		c-0.59,0.59-1.19,0.99-1.78,1.58c-0.79,0.59-1.39,1.39-2.18,1.98c-0.2,0.2-0.4,0.4-0.4,0.4c-0.2,0.2-0.4,0.4-0.4,0.4
		c-0.2,0.2-0.4,0.59-0.79,0.79c-0.4,0.59-0.99,1.19-1.39,1.78c-1.98,2.57-3.56,5.35-4.75,8.32c-0.2,0.2-0.2,0.59-0.4,0.79
		c-0.2,0.4-0.2,0.79-0.4,0.99c0,0.2-0.2,0.4-0.2,0.59c-0.2,0.59-0.4,0.99-0.59,1.58c-0.2,0.4-0.2,0.79-0.4,0.99
		c0,0.2-0.2,0.4-0.2,0.59c0,0.4-0.2,0.79-0.2,1.19c-0.2,1.19-0.4,2.38-0.59,3.56c0,0.4,0,0.59-0.2,0.99c0,0.2,0,0.4,0,0.79
		c0,0.4,0,0.79,0,0.99l0,0c0,0.4,0,0.79,0,1.19c0,0.59,0,1.19,0,1.78c0,12.67,5.74,24.16,15.05,31.49
		c7.13,5.74,16.04,9.31,25.74,9.31c8.91,0,17.03-2.77,23.76-7.72c4.95-3.56,8.91-8.12,11.88-13.47c0.4-0.79,0.79-1.39,1.19-2.18l0,0
		l0,0c2.38-4.95,3.76-10.3,3.76-16.04c0-0.4,0-0.79,0-1.39c0-1.39,0-2.57-0.2-3.96l0.2,0.2c0.59,0.59,1.19,0.99,1.78,1.58
		c0.59-0.99,1.19-1.78,1.78-2.77c0.4,1.78,0.59,3.56,0.79,5.54C93.47,50.69,93.47,52.08,93.47,53.47L93.47,53.47z"/>
	<path id="path1394" inkscape:connector-curvature="0" fill="#F7941D" d="M52.28,16.04L43.56,0C29.11,6.53,19.21,20.99,19.21,37.82
		c0,8.51,2.57,16.44,6.93,22.97c-0.4-2.18-0.4-4.36-0.4-6.73C25.94,36.83,36.83,22.18,52.28,16.04z"/>
	<path id="path1396" inkscape:connector-curvature="0" fill="#ED1C24" d="M59.21,23.96c3.56-0.99,7.52-1.39,11.29-1.39
		c2.38,0,4.95,0.2,7.13,0.59l-0.2-7.13l-0.4-14.26c-1.58-0.2-3.37-0.4-5.15-0.4c-7.92,0-15.25,2.57-21.19,6.73l4.75,8.71
		C46.93,19.8,40,25.74,35.64,33.47c-2.18,3.76-3.76,8.12-4.36,12.67c1.19-2.38,2.57-4.55,4.16-6.53
		C41.19,32.08,49.5,26.34,59.21,23.96z"/>
	<path id="path1398" inkscape:connector-curvature="0" fill="#F7941D" d="M80,15.84l0.4,10.1c-3.37-0.99-6.73-1.58-10.5-1.58
		c-6.93,0-13.47,1.98-19.21,5.35c-7.13,4.36-12.67,11.29-15.45,19.41c2.77-3.76,6.14-7.13,10.1-9.7c5.74-3.76,12.67-5.94,20-5.94
		c5.54,0,10.69,1.19,15.45,3.37c3.56,1.58,6.73,3.76,9.5,6.53l5.54-8.32l7.13-10.89C96.63,19.01,88.71,15.84,80,15.84z"/>
	<path id="path1400" inkscape:connector-curvature="0" fill="#F7941D" d="M88.91,48.71c0,0.4,0,0.79,0,1.39
		c0,8.32-3.37,15.25-3.76,16.04l0,0l0,0c-0.4,0.79-0.79,1.39-1.19,2.18c-2.97,5.35-6.93,9.9-11.88,13.47
		c-6.73,4.75-14.85,7.72-23.76,7.72c-9.7,0-18.81-3.37-25.74-9.31C13.47,72.67,7.52,61.39,7.52,48.71c0-0.59,0-1.19,0-1.78
		c0-0.4,0-0.79,0-1.19l0,0c0-0.4,0-0.79,0-0.99s0-0.4,0-0.79c0-0.4,0-0.59,0.2-0.99c0.2-1.19,0.4-2.38,0.59-3.56
		c0-0.4,0.2-0.79,0.2-1.19c0-0.2,0.2-0.4,0.2-0.59c0.2-0.4,0.2-0.79,0.4-0.99c0.2-0.59,0.4-1.19,0.59-1.58c0-0.2,0.2-0.4,0.2-0.59
		c0.2-0.4,0.2-0.79,0.4-0.99c0.2-0.2,0.2-0.59,0.4-0.79c1.19-2.97,2.97-5.74,4.75-8.32c0.4-0.59,0.99-1.19,1.39-1.78
		c0.2-0.2,0.4-0.59,0.79-0.79c0.2-0.2,0.2-0.4,0.4-0.4c0.2-0.2,0.2-0.4,0.4-0.4c0.59-0.79,1.39-1.39,2.18-1.98
		c0.59-0.59,1.19-0.99,1.78-1.58l0,0c0,0.2-0.2,0.2-0.2,0.4c0,0.2-0.2,0.4-0.2,0.4c-2.38,4.75-3.96,10.5-4.55,16.44
		c-0.2,1.58-0.2,3.17-0.2,4.95c0,21.39,12.48,38.61,27.92,38.61h0.2c0.4,0,0.99,0,1.39,0c2.18,0,4.36-0.4,6.53-0.79
		c10.5-2.77,18.22-12.48,18.22-23.76c0-0.2,0-0.4,0-0.59c-0.2-6.73-2.97-12.87-7.52-17.03c3.17,0,6.34,0.59,9.31,1.39
		c5.74,1.39,10.89,4.16,15.45,7.72l0.2,0.2C88.71,46.14,88.91,47.52,88.91,48.71z"/>
	<g id="g1404">
		<path id="path1402" inkscape:connector-curvature="0" fill="#F7941D" d="M88.91,48.71c0,0.4,0,0.99,0,1.39
			c0,8.71-3.96,16.24-3.96,16.24c-0.4,0.79-0.79,1.39-1.19,2.18c-2.97,5.35-7.13,9.9-12.08,13.47c-6.93,5.15-15.25,7.72-23.96,7.72
			c-9.5,0-18.61-3.37-25.94-9.31c-9.5-7.72-15.05-19.41-15.05-31.68s5.54-23.96,15.05-31.68l0.4-0.4c0,0.2-0.2,0.2-0.2,0.4
			c0,0.2-0.2,0.2-0.2,0.4C12.48,25.15,7.13,36.44,7.13,48.71s5.35,23.56,14.85,31.49c7.13,5.94,16.44,9.11,25.74,9.11
			c8.51,0,16.83-2.57,23.76-7.72c4.95-3.56,8.91-8.12,11.88-13.47c0.4-0.79,0.79-1.39,0.99-2.18c0,0,3.96-7.33,3.96-16.04
			c0-0.4,0-0.99,0-1.39c0-1.39,0-2.57-0.2-3.96v-0.2l0.2,0.2l0.2,0.2C88.91,46.34,88.91,47.52,88.91,48.71z"/>
	</g>
</g>
</svg>
