<?xml version="1.0" encoding="utf-8"?>
<!-- Generator: Adobe Illustrator 27.0.0, SVG Export Plug-In . SVG Version: 6.00 Build 0)  -->
<svg version="1.1" id="Layer_1" xmlns="http://www.w3.org/2000/svg" xmlns:xlink="http://www.w3.org/1999/xlink" x="0px" y="0px"
	 viewBox="0 0 100 100" enable-background="new 0 0 100 100" xml:space="preserve">
<rect fill="#001E36" width="100" height="100"/>
<g display="none">
	<path display="inline" fill="#2B97E7" d="M30.05,61.51l-6.42,19.44h-8.25l21-61.81h9.63L67.1,80.95h-8.53l-6.6-19.44H30.05z
		 M50.32,55.27l-6.05-17.79c-1.38-4.03-2.29-7.7-3.21-11.28h-0.18c-0.92,3.67-1.93,7.43-3.12,11.19L31.7,55.27H50.32z"/>
	<path display="inline" fill="#2B97E7" d="M84.62,24.09c0.09,2.75-1.93,4.95-5.13,4.95c-2.84,0-4.86-2.2-4.86-4.95
		c0-2.84,2.11-5.04,5.04-5.04C82.69,19.05,84.62,21.25,84.62,24.09z M75.63,80.95V36.56h8.07v44.39H75.63z"/>
</g>
<g>
	<path fill="#2B97E7" d="M19.32,24.22c3.26-0.54,7.53-1.01,12.97-1.01c6.68,0,11.57,1.55,14.68,4.35c2.87,2.49,4.58,6.29,4.58,10.95
		c0,4.74-1.4,8.47-4.04,11.18c-3.57,3.81-9.4,5.75-16,5.75c-2.02,0-3.88-0.08-5.44-0.47v20.97h-6.76V24.22z M26.08,49.46
		c1.48,0.39,3.34,0.54,5.59,0.54c8.15,0,13.12-3.96,13.12-11.18c0-6.91-4.89-10.25-12.35-10.25c-2.95,0-5.2,0.23-6.37,0.54V49.46z"
		/>
	<path fill="#2B97E7" d="M57.77,68.95c2.02,1.32,5.59,2.72,9.01,2.72c4.97,0,7.3-2.49,7.3-5.59c0-3.26-1.94-5.05-6.99-6.91
		c-6.76-2.41-9.94-6.13-9.94-10.64c0-6.06,4.89-11.03,12.97-11.03c3.81,0,7.14,1.09,9.24,2.33l-1.71,4.97
		c-1.48-0.93-4.19-2.17-7.69-2.17c-4.04,0-6.29,2.33-6.29,5.13c0,3.11,2.25,4.5,7.14,6.37c6.52,2.49,9.86,5.75,9.86,11.34
		c0,6.6-5.12,11.34-14.06,11.34c-4.12,0-7.92-1.09-10.56-2.64L57.77,68.95z"/>
</g>
</svg>
