<?xml version="1.0" encoding="utf-8"?>
<!-- Generator: Adobe Illustrator 27.0.0, SVG Export Plug-In . SVG Version: 6.00 Build 0)  -->
<svg version="1.1" id="Layer_1" xmlns="http://www.w3.org/2000/svg" xmlns:xlink="http://www.w3.org/1999/xlink" x="0px" y="0px"
	 viewBox="0 0 1080 360" enable-background="new 0 0 1080 360" xml:space="preserve">
<linearGradient id="SVGID_1_" gradientUnits="userSpaceOnUse" x1="0" y1="180" x2="1080" y2="180">
	<stop  offset="0" style="stop-color:#56CCF2"/>
	<stop  offset="1" style="stop-color:#2F7FED"/>
</linearGradient>
<path fill="url(#SVGID_1_)" d="M1048,360H32c-17.67,0-32-14.33-32-32V32C0,14.33,14.33,0,32,0h1016c17.67,0,32,14.33,32,32v296
	C1080,345.67,1065.67,360,1048,360z"/>
<g>
	<path fill="#FFFFFF" d="M961.11,227.24c-6.2,0-9.86-2.28-10.99-6.86c-0.56-2.33-0.85-5.29-0.85-8.88c0-15.57-0.07-26.66-0.21-33.28
		c0-13.17-2.13-24.18-6.39-33.02c-4.26-8.84-13.01-17.84-26.26-27c-1.34,4.02-4.43,7.73-9.29,11.15s-10.18,6.64-15.96,9.67
		c-4.58,2.46-8.66,4.86-12.26,7.18c-17.11,10.57-26.02,25.68-26.73,45.33v17.06c-0.31,2.84-1.01,5.57-2.11,8.19
		c-1.27,3.03-3.07,5.55-5.39,7.56c-2.32,2-5.18,3.01-8.56,3.01c-3.31,0-5.83-0.56-7.55-1.69c-1.73-1.13-2.87-2.85-3.44-5.18
		c-0.56-2.32-0.84-5.28-0.84-8.87V107.53c-3.53,7.61-9.32,14.07-17.38,19.39c-8.07,5.32-16.65,10.13-25.73,14.42
		c-5.29,2.61-10.29,5.22-15.01,7.82c-9.22,5-17.22,10.85-23.98,17.54s-11.41,15.39-13.95,26.1c-0.77,3.66-1.16,7.36-1.16,11.09
		c0,2.71,0.2,5.4,0.6,8.08c0,0,0,0,0,0.01c-4.44,6.01-9.99,10.55-16.66,13.63c-8.31,3.84-17.05,5.75-26.21,5.75l-2.74-0.1
		c-5.5-0.07-10.32-1.81-14.48-5.23c-4.15-3.42-7.04-8.89-8.66-16.43l2.75-1.59c1.54-0.98,5.74-3.34,12.57-7.08
		c5.99-3.23,11.74-6.71,17.27-10.4c5.53-3.7,10.18-8.05,13.95-13.05c3.77-5,6.04-11.06,6.82-18.18l0.21-3.91
		c0-11.69-4.72-21.62-14.16-29.79c-2.96-2.4-6.23-4.86-9.83-7.4c-1.2,3.88-3.87,7.29-8.03,10.25c-4.15,2.96-9.05,5.92-14.68,8.88
		c-4.72,2.46-9.5,5.21-14.32,8.24c-4.83,3.03-9.3,6.62-13.42,10.78c-4.12,4.15-7.45,9.12-9.98,14.89
		c-2.54,5.78-3.81,12.68-3.81,20.71v5.39c0,5.57,0.69,11.08,2.08,16.54c-4.17,5.07-9.24,8.98-15.18,11.73
		c-8.31,3.84-17.08,5.75-26.31,5.75l-2.75-0.1c-6.9-0.42-12.32-2.75-16.27-6.98c-3.94-4.22-6.45-9.5-7.5-15.84
		c-0.92-6.48-1.38-13.25-1.38-20.29l0.22-17.22c0-3.74,0.75-7.36,2.27-10.89c1.51-3.52,3.96-6.13,7.34-7.82
		c2.18-1.05,4.23-1.58,6.13-1.58c2.11,0,4.16,0.53,6.13,1.58c3.38,1.69,5.83,4.3,7.34,7.82c1.52,3.53,2.27,7.15,2.27,10.89
		c7.19,0,12.79-2.06,16.8-6.18c4.02-4.13,6.03-9.07,6.03-14.85c0-3.87-1.03-7.89-3.07-12.05c-2.04-4.15-5.21-8.09-9.51-11.83
		c-2.96-2.54-6.41-5.14-10.35-7.82c-1.2,3.95-3.86,7.4-7.98,10.36c-4.12,2.95-9.03,5.88-14.74,8.77c-4.65,2.46-9.39,5.23-14.21,8.29
		c-4.83,3.06-9.3,6.66-13.42,10.78s-7.45,9.07-9.98,14.84c-2.54,5.78-3.81,12.68-3.81,20.71c0,6.04,0.36,11.66,1.08,16.84
		c-0.66,4.95-2.27,9.14-4.83,12.59c-2.85,3.84-6.57,5.76-11.15,5.76s-7.69-1.11-9.35-3.33c-1.65-2.22-2.48-6.36-2.48-12.42v-71.32
		h3.38c4.65,0,8.17-2.25,10.57-6.76l2.22-4.86h-16.17V86.82c-2.33,4.09-5,7.26-8.03,9.51c-3.03,2.26-6.41,4.37-10.14,6.34l-3.49,1.9
		c-7.4,4.58-11.1,10.92-11.1,19.02v4.86c-4.72,0-8.31,2.22-10.77,6.66l-2.22,4.96h12.99v73.86c0,10.64,2.35,19.18,7.03,25.62
		c4.68,6.45,12.87,9.67,24.57,9.67c8.38,0,15.74-2.39,22.08-7.18c5.05-3.75,9.03-9.24,11.95-16.46c3.73,7.84,8.94,13.82,15.63,17.93
		c6.76,4.16,14.58,6.24,23.45,6.24c10.15-0.28,19.97-2.18,29.48-5.71c8.95-3.38,16.96-8.15,24.04-14.31c2.3-2,4.39-4.14,6.28-6.42
		c0.27,0.68,0.55,1.35,0.85,2.03c4.02,8.39,9.51,14.53,16.49,18.44c6.97,3.91,14.61,5.86,22.93,5.86h2.32
		c9.02-0.42,18-2.3,26.94-5.65c8.95-3.34,16.96-8.1,24.04-14.26c2.67-2.33,5.06-4.84,7.2-7.54c2.07,5.98,5.18,11.19,9.34,15.62
		c3.73,3.87,7.9,6.78,12.52,8.72c4.61,1.93,9.49,2.9,14.63,2.9c7.4,0,13.44-1.92,18.12-5.76c4.69-3.84,8.44-8.89,11.26-15.16
		c1.69,6.48,4.63,11.59,8.82,15.32c4.19,3.74,9.98,5.6,17.38,5.6c10,0,17.96-2.67,23.88-8.03c2.21-1.96,4.22-4.19,6.02-6.69v31.94
		c2.33-3.8,4.98-6.85,7.98-9.14c2.99-2.28,6.07-4.27,9.24-5.96c2.82-1.55,5.39-3.21,7.72-4.97c5.28-3.87,7.92-9.44,7.92-16.7
		l-0.1-58.95c0-3.74,0.75-7.36,2.27-10.89c1.51-3.52,3.96-6.13,7.34-7.82c2.18-1.05,4.23-1.58,6.13-1.58c2.11,0,4.16,0.53,6.13,1.58
		c3.38,1.69,5.84,4.3,7.39,7.82c1.55,3.53,2.33,7.15,2.33,10.89v43.11c0,21.41,8.52,33.03,25.57,34.86l3.06,0.21
		c5.85,0,11.06-2.04,15.64-6.12c5.35-4.93,8.03-11.03,8.03-18.28C966.64,226.4,964.07,227.24,961.11,227.24z M657.02,170.93
		c0-4.37,0.77-8.07,2.32-11.1c1.55-3.03,3.54-5.32,5.97-6.87c2.43-1.54,4.95-2.32,7.56-2.32c3.87,0,7.43,1.73,10.67,5.18
		c2.25,2.89,3.38,5.88,3.38,8.98c0,4.51-1.75,8.87-5.23,13.1c-3.49,4.23-7.52,7.68-12.1,10.35c-2.75,1.63-5.11,2.93-7.08,3.91
		l-5.49,2.96V170.93z M791.52,206.74c0,3.88-0.72,7.61-2.16,11.2c-1.45,3.6-3.93,6.31-7.45,8.14c-2.26,1.06-4.33,1.59-6.24,1.59
		c-3.59,0-6.55-1.41-8.87-4.23c-4.51-5.42-6.76-13.35-6.76-23.77c0-12.68,2.43-22.65,7.29-29.91c3.73-5.56,9.89-10.81,18.49-15.74
		l5.7-3.27V206.74z"/>
</g>
<g>
	<path fill="#FFFFFF" d="M373.99,336.08H105.3c-13.81,0-25-11.19-25-25V42.39c0-13.81,11.19-25,25-25h268.69c13.81,0,25,11.19,25,25
		v268.69C398.99,324.89,387.8,336.08,373.99,336.08z"/>
	
		<linearGradient id="SVGID_00000138544918589721696350000005891078550260651425_" gradientUnits="userSpaceOnUse" x1="95.2955" y1="176.7357" x2="383.9946" y2="176.7357">
		<stop  offset="0" style="stop-color:#56CCF2"/>
		<stop  offset="1" style="stop-color:#2F7FED"/>
	</linearGradient>
	<path fill="url(#SVGID_00000138544918589721696350000005891078550260651425_)" d="M131.38,61.79h216.52c3.69,0,6.68,2.99,6.68,6.68
		v0c0,3.69-2.99,6.68-6.68,6.68H144.75c-3.69,0-6.68,2.99-6.68,6.68v225.88c0,3.69,2.99,6.68,6.68,6.68h216.52
		c8.86,0,16.04-7.18,16.04-16.04V117.93c0-3.69-2.99-6.68-6.68-6.68h-45.44c-3.69,0-6.68,2.99-6.68,6.68v130.98
		c0,3.69-2.99,6.68-6.68,6.68H203.56c-3.69,0-6.68-2.99-6.68-6.68v-72.04c0-3.68,2.98-6.67,6.66-6.68l36.09-0.11
		c3.69-0.01,6.69,2.97,6.71,6.66v0c0.01,3.69-2.97,6.69-6.66,6.71l-22.77,0.06c-3.68,0.01-6.66,3-6.66,6.68v45.36
		c0,3.69,2.99,6.68,6.68,6.68h81.53c3.69,0,6.68-2.99,6.68-6.68V117.93c0-3.69-2.99-6.68-6.68-6.68H180.84
		c-3.69,0-6.68,2.99-6.68,6.68v9.36c0,3.69,2.99,6.68,6.68,6.68h94.9c3.69,0,6.68,2.99,6.68,6.68v72.17c0,3.69-2.99,6.68-6.68,6.68
		h-36.09c-3.69,0-6.68-2.99-6.68-6.68l0,0c0-3.69,2.99-6.68,6.68-6.68h22.72c3.69,0,6.68-2.99,6.68-6.68v-45.44
		c0-3.69-2.99-6.68-6.68-6.68h-81.53c-3.69,0-6.68,2.99-6.68,6.68v117.62c0,3.69,2.99,6.68,6.68,6.68h153.71
		c3.69,0,6.68-2.99,6.68-6.68V140.65c0-3.69,2.99-6.68,6.68-6.68h0c3.69,0,6.68,2.99,6.68,6.68V285c0,3.69-2.99,6.68-6.68,6.68
		H167.47c-3.69,0-6.68-2.99-6.68-6.68V104.56c0-3.69,2.99-6.68,6.68-6.68h203.16c3.69,0,6.68-2.99,6.68-6.68V55.11
		c0-8.86-7.18-16.04-16.04-16.04H118.02c-8.86,0-16.04,7.18-16.04,16.04v243.26c0,8.86,7.18,16.04,16.04,16.04h0
		c3.69,0,6.68-2.99,6.68-6.68V68.47C124.7,64.78,127.69,61.79,131.38,61.79z"/>
</g>
</svg>
