<?xml version="1.0" encoding="utf-8"?>
<!-- Generator: Adobe Illustrator 27.0.0, SVG Export Plug-In . SVG Version: 6.00 Build 0)  -->
<svg version="1.1" id="Layer_1" xmlns="http://www.w3.org/2000/svg" xmlns:xlink="http://www.w3.org/1999/xlink" x="0px" y="0px"
	 viewBox="0 0 100 75.17" enable-background="new 0 0 100 75.17" xml:space="preserve">
<g id="final-nontexered">
	<g>
		<path fill="#2F7FED" d="M50,40.07c-9.69,0-17.55,7.86-17.55,17.55S40.31,75.17,50,75.17s17.55-7.86,17.55-17.55
			S59.69,40.07,50,40.07z M41.25,48.05c0-1.56,1.26-2.82,2.82-2.82h4.85c-1.35,0.24-2.37,1.41-2.37,2.82c0,0.06,0,0.12,0.01,0.18
			c0.09,1.43-1.03,2.65-2.47,2.65h-0.01C42.51,50.88,41.25,49.61,41.25,48.05L41.25,48.05z M47.65,68.38
			c0.18,0.4,0.37,0.72,0.59,0.98c0.26,0.28,0.55,0.5,0.86,0.66h-3.7c-0.56,0-1.09-0.1-1.59-0.3c-0.5-0.2-0.95-0.48-1.36-0.86
			c-0.41-0.37-0.74-0.8-1-1.29c-0.26-0.49-0.4-1.04-0.42-1.64c0-0.07-0.01-0.25-0.02-0.54c-0.01-0.29-0.02-0.65-0.02-1.08
			c0-0.43,0-0.91,0-1.43s0-1.05,0-1.59c0-1.09,0-2.09,0-3c0-0.91,0.01-1.45,0.03-1.64c0.02-0.58,0.16-1.12,0.42-1.62
			c0.26-0.5,0.59-0.94,1-1.31c0.41-0.37,0.86-0.66,1.36-0.86c0.5-0.2,1.03-0.3,1.59-0.3h3.7c-0.31,0.19-0.59,0.42-0.86,0.7
			c-0.21,0.26-0.41,0.58-0.59,0.96c-0.18,0.38-0.27,0.88-0.27,1.48v11.17C47.38,67.48,47.47,67.98,47.65,68.38z M58.97,67.19
			c0,1.56-1.26,2.82-2.82,2.82H51.3c1.35-0.24,2.37-1.41,2.37-2.82c0-0.06,0-0.12-0.01-0.18c-0.09-1.43,1.03-2.65,2.47-2.65h0.01
			C57.71,64.36,58.97,65.63,58.97,67.19L58.97,67.19z M59.01,52.37c0,0.52,0,1.05,0,1.59c0,1.09,0,2.09,0,3
			c0,0.91-0.01,1.45-0.03,1.64c-0.02,0.58-0.16,1.12-0.42,1.62c-0.26,0.5-0.59,0.94-1,1.31c-0.41,0.37-0.86,0.66-1.36,0.86
			c-0.5,0.2-1.03,0.3-1.59,0.3h-3.7c0.31-0.19,0.59-0.42,0.86-0.7c0.21-0.26,0.41-0.58,0.59-0.96c0.18-0.38,0.27-0.88,0.27-1.48
			V48.37c0-0.61-0.09-1.11-0.27-1.5c-0.18-0.4-0.37-0.72-0.59-0.98c-0.26-0.28-0.55-0.5-0.86-0.66h3.7c0.56,0,1.09,0.1,1.59,0.3
			c0.5,0.2,0.95,0.48,1.36,0.86c0.41,0.37,0.74,0.8,1,1.29c0.26,0.49,0.4,1.04,0.42,1.64c0,0.07,0.01,0.25,0.02,0.54
			c0.01,0.29,0.02,0.65,0.02,1.08C59.01,51.37,59.01,51.84,59.01,52.37z"/>
	</g>
	<g>
		<g>
			<path fill="#2F7FED" d="M82.72,0L53.06,0c8.23,1.45,14.49,8.63,14.49,17.28s-6.26,15.84-14.49,17.28h29.66
				c9.55,0,17.28-7.74,17.28-17.28v0C100,7.74,92.26,0,82.72,0z"/>
			<path fill="#2F7FED" d="M32.45,17.28c0-8.65,6.26-15.84,14.49-17.28L17.28,0C7.74,0,0,7.74,0,17.28v0
				c0,9.55,7.74,17.28,17.28,17.28h29.66C38.71,33.12,32.45,25.93,32.45,17.28z"/>
		</g>
	</g>
</g>
</svg>
