<?xml version="1.0" encoding="utf-8"?>
<!-- Generator: Adobe Illustrator 27.0.0, SVG Export Plug-In . SVG Version: 6.00 Build 0)  -->
<svg version="1.1" id="Layer_1" xmlns="http://www.w3.org/2000/svg" xmlns:xlink="http://www.w3.org/1999/xlink" x="0px" y="0px"
	 viewBox="0 0 155.25 36" enable-background="new 0 0 155.25 36" xml:space="preserve">
<path fill="#30A3E6" d="M9,0h137.25c4.98,0,9,4.02,9,9v18c0,4.98-4.02,9-9,9H9c-4.98,0-9-4.02-9-9V9C0,4.02,4.02,0,9,0L9,0z M9,0"/>
<g>
	<path fill="#FFFFFF" d="M33.12,10.01l-3.15,15.87c0,0-0.44,1.1-1.65,0.57l-7.27-5.57l-2.64-1.28l-4.45-1.5c0,0-0.68-0.24-0.75-0.77
		c-0.07-0.53,0.77-0.81,0.77-0.81l17.68-6.94C31.67,9.59,33.12,8.95,33.12,10.01z"/>
	<path fill="#D2E5F1" d="M20.5,25.71c0,0-0.21-0.02-0.48-0.86c-0.26-0.84-1.61-5.24-1.61-5.24l10.68-6.78c0,0,0.62-0.37,0.59,0
		c0,0,0.11,0.07-0.22,0.37c-0.33,0.31-8.39,7.55-8.39,7.55"/>
	<path fill="#B5CFE4" d="M23.84,23.02l-2.87,2.62c0,0-0.22,0.17-0.47,0.06l0.55-4.87"/>
</g>
<g>
	<path fill="#FFFFFF" d="M52.2,19.62c-0.42,0.51-0.92,0.9-1.5,1.17s-1.22,0.4-1.93,0.4c-0.64,0-1.23-0.12-1.78-0.35
		c-0.55-0.23-1.02-0.55-1.42-0.95c-0.4-0.4-0.72-0.87-0.95-1.42c-0.23-0.55-0.35-1.14-0.35-1.77s0.12-1.22,0.35-1.77
		c0.23-0.55,0.55-1.02,0.95-1.42c0.4-0.4,0.87-0.72,1.42-0.95c0.55-0.23,1.14-0.35,1.78-0.35c0.69,0,1.29,0.12,1.82,0.36
		c0.52,0.24,0.99,0.59,1.4,1.04l-1.14,1.1c-0.26-0.3-0.55-0.53-0.88-0.71c-0.33-0.18-0.73-0.26-1.18-0.26
		c-0.4,0-0.78,0.07-1.13,0.21c-0.35,0.14-0.66,0.34-0.92,0.59c-0.26,0.26-0.47,0.57-0.62,0.93s-0.23,0.77-0.23,1.22
		s0.08,0.85,0.23,1.22c0.15,0.36,0.36,0.67,0.62,0.93c0.26,0.26,0.57,0.45,0.92,0.59c0.35,0.14,0.73,0.21,1.13,0.21
		c0.48,0,0.91-0.1,1.28-0.29s0.7-0.47,0.99-0.83L52.2,19.62z"/>
	<path fill="#FFFFFF" d="M53.18,12.41h1.57v2.41l-0.1,1.07h0.1c0.17-0.28,0.41-0.51,0.73-0.69c0.32-0.18,0.67-0.27,1.06-0.27
		c0.76,0,1.32,0.22,1.69,0.67c0.36,0.45,0.55,1.06,0.55,1.84V21H57.2v-3.37c0-0.41-0.1-0.72-0.29-0.93
		c-0.19-0.21-0.46-0.32-0.8-0.32c-0.22,0-0.41,0.05-0.58,0.14c-0.17,0.09-0.31,0.22-0.43,0.38c-0.12,0.16-0.2,0.35-0.26,0.56
		s-0.09,0.44-0.09,0.68V21h-1.57V12.41z"/>
	<path fill="#FFFFFF" d="M63.63,20.38h-0.1c-0.18,0.22-0.41,0.42-0.67,0.58c-0.26,0.16-0.59,0.24-1,0.24c-0.3,0-0.59-0.05-0.86-0.15
		s-0.5-0.24-0.7-0.41c-0.2-0.18-0.36-0.39-0.47-0.64s-0.17-0.52-0.17-0.82c0-0.3,0.06-0.58,0.18-0.82c0.12-0.24,0.29-0.45,0.5-0.63
		c0.22-0.18,0.47-0.31,0.76-0.4c0.29-0.09,0.61-0.14,0.95-0.14c0.38,0,0.7,0.03,0.95,0.09c0.25,0.06,0.45,0.12,0.61,0.19v-0.18
		c0-0.31-0.12-0.57-0.37-0.77s-0.56-0.31-0.92-0.31c-0.54,0-1,0.23-1.38,0.68l-1.14-0.78c0.62-0.78,1.48-1.18,2.56-1.18
		c0.91,0,1.61,0.21,2.09,0.64s0.72,1.06,0.72,1.9V21h-1.55V20.38z M63.63,18.61c-0.18-0.09-0.37-0.16-0.57-0.21
		c-0.2-0.05-0.41-0.08-0.64-0.08c-0.38,0-0.67,0.08-0.87,0.25s-0.31,0.37-0.31,0.61s0.1,0.43,0.29,0.58
		c0.2,0.14,0.42,0.22,0.68,0.22c0.21,0,0.4-0.04,0.58-0.11c0.18-0.08,0.33-0.18,0.45-0.3s0.22-0.27,0.29-0.43
		S63.63,18.79,63.63,18.61z"/>
	<path fill="#FFFFFF" d="M66.96,16.46h-1.03v-1.34h1.03v-1.8h1.57v1.8h1.44v1.34h-1.44v2.35c0,0.14,0.01,0.27,0.04,0.39
		c0.03,0.12,0.08,0.22,0.16,0.3c0.11,0.13,0.27,0.2,0.48,0.2c0.14,0,0.24-0.01,0.32-0.04c0.08-0.03,0.16-0.07,0.23-0.11l0.44,1.38
		c-0.18,0.09-0.38,0.15-0.59,0.2s-0.45,0.07-0.7,0.07c-0.3,0-0.56-0.05-0.8-0.14c-0.24-0.09-0.43-0.22-0.59-0.39
		c-0.38-0.37-0.56-0.89-0.56-1.57V16.46z"/>
	<path fill="#FFFFFF" d="M76.55,14.93c0.46,0,0.87,0.08,1.25,0.23s0.71,0.37,0.98,0.65c0.28,0.28,0.49,0.61,0.65,0.99
		s0.23,0.8,0.23,1.26c0,0.46-0.08,0.88-0.23,1.26c-0.16,0.38-0.37,0.71-0.65,0.99c-0.28,0.28-0.6,0.49-0.98,0.65
		s-0.8,0.23-1.25,0.23s-0.87-0.08-1.25-0.23s-0.71-0.37-0.98-0.65c-0.28-0.28-0.49-0.61-0.65-0.99c-0.16-0.38-0.23-0.8-0.23-1.26
		c0-0.46,0.08-0.88,0.23-1.26c0.16-0.38,0.37-0.71,0.65-0.99c0.28-0.28,0.6-0.49,0.98-0.65S76.09,14.93,76.55,14.93z M76.55,19.74
		c0.2,0,0.39-0.04,0.58-0.11c0.19-0.08,0.35-0.19,0.5-0.33c0.14-0.14,0.26-0.32,0.34-0.53c0.08-0.21,0.13-0.44,0.13-0.71
		c0-0.26-0.04-0.5-0.13-0.71c-0.08-0.21-0.2-0.38-0.34-0.53c-0.14-0.14-0.31-0.25-0.5-0.33c-0.19-0.08-0.38-0.11-0.58-0.11
		c-0.21,0-0.4,0.04-0.59,0.11c-0.18,0.08-0.35,0.19-0.49,0.33c-0.14,0.14-0.26,0.32-0.34,0.53C75.04,17.56,75,17.8,75,18.06
		c0,0.26,0.04,0.5,0.13,0.71c0.08,0.21,0.2,0.38,0.34,0.53c0.14,0.14,0.31,0.25,0.49,0.33C76.14,19.7,76.34,19.74,76.55,19.74z"/>
	<path fill="#FFFFFF" d="M82.03,15.89h0.1c0.18-0.3,0.43-0.53,0.74-0.7c0.31-0.17,0.67-0.26,1.07-0.26c0.37,0,0.69,0.06,0.97,0.18
		c0.28,0.12,0.51,0.29,0.69,0.51c0.18,0.22,0.32,0.48,0.41,0.79c0.09,0.31,0.14,0.65,0.14,1.03V21h-1.57v-3.37
		c0-0.42-0.09-0.74-0.28-0.94c-0.19-0.2-0.46-0.31-0.82-0.31c-0.22,0-0.41,0.05-0.57,0.14c-0.16,0.09-0.3,0.22-0.42,0.37
		c-0.12,0.16-0.2,0.34-0.26,0.55s-0.09,0.44-0.09,0.68V21h-1.57v-5.88h1.48V15.89z"/>
	<path fill="#FFFFFF" d="M92.1,21v-7.06h-2.4v-1.54h6.42v1.54h-2.4V21H92.1z"/>
	<path fill="#FFFFFF" d="M101.69,19.58c-0.27,0.48-0.64,0.87-1.1,1.16s-1.02,0.44-1.69,0.44c-0.45,0-0.86-0.08-1.24-0.23
		s-0.71-0.37-0.99-0.65c-0.28-0.28-0.5-0.61-0.65-0.99c-0.16-0.38-0.23-0.8-0.23-1.25c0-0.42,0.08-0.82,0.23-1.21
		c0.15-0.38,0.36-0.71,0.64-1c0.27-0.28,0.59-0.51,0.97-0.68s0.78-0.25,1.23-0.25c0.47,0,0.89,0.08,1.26,0.23
		c0.37,0.16,0.68,0.37,0.92,0.65c0.25,0.28,0.44,0.6,0.56,0.98s0.19,0.78,0.19,1.22c0,0.06,0,0.1,0,0.14
		c-0.01,0.05-0.01,0.09-0.01,0.13c-0.01,0.04-0.01,0.08-0.01,0.13h-4.43c0.03,0.24,0.1,0.45,0.2,0.62c0.1,0.17,0.22,0.32,0.37,0.43
		c0.15,0.12,0.31,0.2,0.49,0.25c0.18,0.05,0.36,0.08,0.54,0.08c0.36,0,0.66-0.08,0.89-0.25s0.42-0.37,0.56-0.62L101.69,19.58z
		 M100.26,17.3c-0.01-0.1-0.04-0.22-0.1-0.35s-0.15-0.25-0.26-0.36c-0.12-0.11-0.26-0.2-0.43-0.28c-0.17-0.07-0.38-0.11-0.62-0.11
		c-0.34,0-0.63,0.1-0.89,0.29s-0.44,0.46-0.54,0.8H100.26z"/>
	<path fill="#FFFFFF" d="M102.79,21v-8.59h1.57V21H102.79z"/>
	<path fill="#FFFFFF" d="M111.21,19.58c-0.27,0.48-0.64,0.87-1.1,1.16s-1.02,0.44-1.69,0.44c-0.45,0-0.86-0.08-1.24-0.23
		s-0.71-0.37-0.99-0.65c-0.28-0.28-0.5-0.61-0.65-0.99c-0.16-0.38-0.23-0.8-0.23-1.25c0-0.42,0.08-0.82,0.23-1.21
		c0.15-0.38,0.36-0.71,0.64-1c0.27-0.28,0.59-0.51,0.97-0.68s0.78-0.25,1.23-0.25c0.47,0,0.89,0.08,1.26,0.23
		c0.37,0.16,0.68,0.37,0.92,0.65c0.25,0.28,0.44,0.6,0.56,0.98s0.19,0.78,0.19,1.22c0,0.06,0,0.1,0,0.14
		c-0.01,0.05-0.01,0.09-0.01,0.13c-0.01,0.04-0.01,0.08-0.01,0.13h-4.43c0.03,0.24,0.1,0.45,0.2,0.62c0.1,0.17,0.22,0.32,0.37,0.43
		c0.15,0.12,0.31,0.2,0.49,0.25c0.18,0.05,0.36,0.08,0.54,0.08c0.36,0,0.66-0.08,0.89-0.25s0.42-0.37,0.56-0.62L111.21,19.58z
		 M109.79,17.3c-0.01-0.1-0.04-0.22-0.1-0.35s-0.15-0.25-0.26-0.36c-0.12-0.11-0.26-0.2-0.43-0.28c-0.17-0.07-0.38-0.11-0.62-0.11
		c-0.34,0-0.63,0.1-0.89,0.29s-0.44,0.46-0.54,0.8H109.79z"/>
	<path fill="#FFFFFF" d="M115.09,23.78c-0.42,0-0.79-0.05-1.11-0.16c-0.32-0.11-0.61-0.25-0.85-0.42c-0.24-0.17-0.44-0.36-0.6-0.57
		s-0.28-0.42-0.35-0.62l1.5-0.6c0.11,0.31,0.29,0.55,0.55,0.73c0.26,0.17,0.54,0.26,0.85,0.26c0.5,0,0.89-0.16,1.18-0.48
		c0.29-0.32,0.43-0.76,0.43-1.33v-0.41h-0.1c-0.18,0.26-0.43,0.46-0.73,0.61c-0.3,0.15-0.65,0.22-1.06,0.22
		c-0.35,0-0.69-0.07-1.03-0.21s-0.63-0.35-0.88-0.61c-0.26-0.26-0.46-0.58-0.62-0.96s-0.24-0.79-0.24-1.25
		c0-0.46,0.08-0.88,0.24-1.25c0.16-0.38,0.37-0.7,0.62-0.96c0.26-0.27,0.55-0.47,0.88-0.61s0.67-0.21,1.03-0.21
		c0.41,0,0.76,0.07,1.06,0.22c0.3,0.15,0.54,0.35,0.73,0.61h0.1v-0.64h1.5v5.46c0,0.5-0.08,0.94-0.23,1.34
		c-0.15,0.4-0.36,0.73-0.64,1.01c-0.27,0.28-0.6,0.49-0.98,0.64C115.98,23.71,115.55,23.78,115.09,23.78z M115.15,19.58
		c0.19,0,0.38-0.04,0.57-0.11c0.19-0.07,0.35-0.17,0.5-0.31c0.14-0.14,0.26-0.31,0.35-0.51c0.09-0.2,0.13-0.43,0.13-0.69
		c0-0.26-0.04-0.49-0.13-0.69c-0.09-0.2-0.2-0.38-0.35-0.51c-0.14-0.14-0.31-0.24-0.5-0.31c-0.19-0.07-0.38-0.11-0.57-0.11
		c-0.19,0-0.38,0.04-0.56,0.11s-0.35,0.18-0.49,0.32c-0.14,0.14-0.26,0.31-0.35,0.51c-0.09,0.2-0.13,0.43-0.13,0.69
		c0,0.26,0.04,0.49,0.13,0.69s0.2,0.37,0.35,0.51c0.14,0.14,0.31,0.24,0.49,0.31C114.77,19.55,114.96,19.58,115.15,19.58z"/>
	<path fill="#FFFFFF" d="M119.54,15.12h1.48v0.82h0.1c0.07-0.14,0.17-0.28,0.29-0.4s0.25-0.22,0.4-0.31
		c0.15-0.09,0.31-0.16,0.48-0.22c0.17-0.06,0.34-0.08,0.51-0.08c0.21,0,0.39,0.02,0.53,0.07c0.15,0.04,0.27,0.1,0.38,0.17l-0.42,1.4
		c-0.1-0.05-0.2-0.09-0.32-0.11c-0.12-0.03-0.26-0.04-0.43-0.04c-0.22,0-0.41,0.04-0.59,0.13c-0.18,0.08-0.33,0.2-0.45,0.36
		c-0.12,0.15-0.22,0.33-0.29,0.54c-0.07,0.21-0.1,0.43-0.1,0.67V21h-1.57V15.12z"/>
	<path fill="#FFFFFF" d="M127.81,20.38h-0.1c-0.18,0.22-0.41,0.42-0.67,0.58s-0.59,0.24-1,0.24c-0.3,0-0.59-0.05-0.86-0.15
		c-0.27-0.1-0.5-0.24-0.7-0.41s-0.36-0.39-0.47-0.64s-0.17-0.52-0.17-0.82c0-0.3,0.06-0.58,0.18-0.82c0.12-0.24,0.29-0.45,0.5-0.63
		c0.22-0.18,0.47-0.31,0.76-0.4s0.61-0.14,0.95-0.14c0.38,0,0.7,0.03,0.95,0.09c0.25,0.06,0.45,0.12,0.61,0.19v-0.18
		c0-0.31-0.12-0.57-0.37-0.77s-0.56-0.31-0.92-0.31c-0.54,0-1,0.23-1.38,0.68L124,16.1c0.62-0.78,1.48-1.18,2.56-1.18
		c0.91,0,1.61,0.21,2.09,0.64c0.48,0.43,0.72,1.06,0.72,1.9V21h-1.55V20.38z M127.81,18.61c-0.18-0.09-0.37-0.16-0.57-0.21
		c-0.2-0.05-0.41-0.08-0.64-0.08c-0.38,0-0.67,0.08-0.87,0.25s-0.31,0.37-0.31,0.61s0.1,0.43,0.29,0.58
		c0.2,0.14,0.42,0.22,0.68,0.22c0.21,0,0.4-0.04,0.58-0.11c0.18-0.08,0.33-0.18,0.45-0.3s0.22-0.27,0.29-0.43
		C127.78,18.96,127.81,18.79,127.81,18.61z"/>
	<path fill="#FFFFFF" d="M130.61,15.12h1.48v0.77h0.1c0.18-0.29,0.43-0.52,0.75-0.7c0.32-0.18,0.67-0.26,1.05-0.26
		c0.45,0,0.82,0.1,1.13,0.31s0.52,0.46,0.65,0.77c0.18-0.3,0.44-0.55,0.78-0.76s0.74-0.32,1.22-0.32c0.36,0,0.67,0.06,0.94,0.17
		c0.26,0.12,0.48,0.28,0.65,0.49s0.3,0.46,0.39,0.75s0.13,0.61,0.13,0.95V21h-1.57v-3.42c0-0.8-0.33-1.2-0.98-1.2
		c-0.21,0-0.39,0.05-0.55,0.14c-0.16,0.09-0.29,0.22-0.4,0.37c-0.11,0.16-0.19,0.34-0.25,0.56c-0.06,0.22-0.09,0.45-0.09,0.69V21
		h-1.57v-3.42c0-0.8-0.34-1.2-1.03-1.2c-0.2,0-0.38,0.05-0.53,0.14c-0.15,0.09-0.28,0.22-0.38,0.37c-0.1,0.16-0.18,0.34-0.24,0.56
		c-0.06,0.22-0.08,0.45-0.08,0.69V21h-1.57V15.12z"/>
</g>
</svg>
