<?xml version="1.0" encoding="utf-8"?>
<!-- Generator: Adobe Illustrator 27.0.0, SVG Export Plug-In . SVG Version: 6.00 Build 0)  -->
<svg version="1.1" id="Layer_1" xmlns="http://www.w3.org/2000/svg" xmlns:xlink="http://www.w3.org/1999/xlink" x="0px" y="0px"
	 viewBox="0 0 155.25 36" enable-background="new 0 0 155.25 36" xml:space="preserve">
<g>
	<path fill="#25D366" d="M9,0h137.25c4.98,0,9,4.02,9,9v18c0,4.98-4.02,9-9,9H9c-4.98,0-9-4.02-9-9V9C0,4.02,4.02,0,9,0L9,0z M9,0"
		/>
	<path fill-rule="evenodd" clip-rule="evenodd" fill="#FFFFFF" d="M20.81,9.34c2.18,0.01,4.28,0.86,5.85,2.37
		c1.61,1.54,2.54,3.61,2.62,5.84c0.08,2.18-0.68,4.31-2.12,5.94c-1.58,1.79-3.78,2.82-6.15,2.89c-0.08,0-0.16,0-0.24,0
		c-1.28,0-2.55-0.28-3.7-0.84l-4.46,0.99c0,0-0.01,0-0.01,0c-0.04,0-0.07-0.04-0.07-0.07l0.75-4.51c-0.64-1.18-1-2.5-1.04-3.85
		c-0.07-2.27,0.76-4.44,2.32-6.09c1.62-1.72,3.83-2.67,6.2-2.67H20.81z M20.76,10.81c-0.07,0-0.14,0-0.2,0
		c-3.88,0.11-6.95,3.36-6.84,7.24c0.04,1.19,0.37,2.35,0.96,3.37l0.13,0.22l-0.56,3.06l3.03-0.71l0.23,0.12
		c1,0.52,2.12,0.79,3.25,0.79c0.07,0,0.13,0,0.2,0c3.88-0.11,6.95-3.36,6.84-7.24C27.69,13.84,24.55,10.81,20.76,10.81L20.76,10.81z
		 M17.82,13.74c0.14,0,0.29,0.01,0.41,0.02c0.15,0.01,0.32,0.02,0.47,0.39c0.18,0.43,0.56,1.5,0.61,1.61
		c0.05,0.11,0.08,0.23,0.01,0.38c-0.07,0.14-0.11,0.23-0.23,0.35c-0.11,0.12-0.23,0.27-0.33,0.37c-0.11,0.1-0.22,0.21-0.11,0.43
		c0.12,0.22,0.52,0.93,1.15,1.52c0.79,0.75,1.43,1,1.68,1.12c0.09,0.04,0.17,0.06,0.23,0.06c0.09,0,0.16-0.04,0.23-0.11
		c0.13-0.14,0.53-0.6,0.7-0.82c0.09-0.11,0.17-0.15,0.25-0.15c0.07,0,0.14,0.02,0.23,0.06c0.19,0.08,1.23,0.63,1.44,0.74
		c0.21,0.11,0.35,0.17,0.4,0.26c0.05,0.09,0.04,0.52-0.16,1.01c-0.19,0.5-1.08,0.95-1.47,0.97c-0.12,0.01-0.23,0.02-0.38,0.02
		c-0.36,0-0.91-0.09-2.18-0.64c-2.15-0.93-3.45-3.2-3.55-3.34c-0.1-0.14-0.84-1.19-0.8-2.24c0.03-1.05,0.6-1.55,0.8-1.76
		c0.19-0.2,0.41-0.25,0.56-0.25H17.82z M17.82,13.74"/>
	<path fill="#FFFFFF" d="M42.6,16.81h1.82c-0.05-0.5-0.19-0.94-0.41-1.32c-0.22-0.38-0.49-0.7-0.83-0.96
		c-0.33-0.26-0.7-0.46-1.13-0.6c-0.41-0.14-0.86-0.21-1.33-0.21c-0.66,0-1.25,0.12-1.78,0.35c-0.52,0.23-0.96,0.55-1.32,0.96
		c-0.36,0.41-0.63,0.89-0.83,1.44c-0.19,0.54-0.29,1.14-0.29,1.78c0,0.62,0.09,1.21,0.29,1.75c0.2,0.54,0.47,1,0.83,1.4
		c0.36,0.4,0.8,0.72,1.32,0.95c0.53,0.22,1.12,0.34,1.78,0.34c0.53,0,1.01-0.08,1.45-0.24c0.44-0.16,0.82-0.39,1.15-0.7
		c0.33-0.31,0.59-0.67,0.79-1.11c0.2-0.43,0.32-0.92,0.38-1.45h-1.82c-0.07,0.58-0.27,1.04-0.6,1.4c-0.32,0.35-0.77,0.53-1.34,0.53
		c-0.43,0-0.79-0.08-1.08-0.24c-0.3-0.17-0.54-0.39-0.72-0.66c-0.18-0.27-0.32-0.57-0.41-0.91c-0.08-0.34-0.12-0.7-0.12-1.05
		c0-0.38,0.04-0.74,0.12-1.09c0.08-0.35,0.22-0.66,0.41-0.94c0.18-0.28,0.43-0.5,0.72-0.66c0.29-0.17,0.65-0.25,1.08-0.25
		c0.23,0,0.45,0.04,0.66,0.12c0.21,0.07,0.41,0.17,0.57,0.31c0.17,0.14,0.31,0.3,0.42,0.48C42.5,16.4,42.57,16.6,42.6,16.81
		L42.6,16.81z M45.6,13.93v8.57h1.7v-3.25c0-0.63,0.1-1.08,0.31-1.35c0.21-0.28,0.54-0.42,1.01-0.42c0.41,0,0.69,0.13,0.85,0.38
		c0.16,0.25,0.24,0.63,0.24,1.14v3.5h1.7v-3.82c0-0.38-0.03-0.73-0.11-1.04c-0.06-0.32-0.18-0.59-0.35-0.8
		c-0.17-0.22-0.4-0.4-0.69-0.52c-0.29-0.13-0.66-0.19-1.12-0.19c-0.32,0-0.65,0.08-0.98,0.25c-0.34,0.16-0.61,0.42-0.83,0.78H47.3
		v-3.23H45.6z M52.64,18.2c0.03-0.4,0.12-0.73,0.3-1c0.18-0.26,0.4-0.48,0.67-0.64c0.27-0.16,0.58-0.27,0.91-0.34
		c0.34-0.07,0.69-0.11,1.03-0.11c0.31,0,0.63,0.02,0.95,0.07c0.32,0.04,0.61,0.12,0.88,0.25c0.26,0.12,0.48,0.31,0.65,0.54
		c0.17,0.22,0.25,0.52,0.25,0.9v3.23c0,0.28,0.02,0.55,0.05,0.8c0.03,0.25,0.09,0.45,0.17,0.57h-1.73c-0.03-0.1-0.06-0.19-0.08-0.29
		c-0.02-0.1-0.03-0.21-0.04-0.31c-0.27,0.28-0.59,0.48-0.96,0.59c-0.37,0.11-0.75,0.17-1.13,0.17c-0.3,0-0.57-0.04-0.83-0.11
		c-0.26-0.07-0.48-0.18-0.67-0.34c-0.19-0.15-0.34-0.34-0.46-0.57c-0.1-0.23-0.16-0.51-0.16-0.83c0-0.35,0.06-0.64,0.18-0.86
		c0.13-0.23,0.29-0.42,0.48-0.55c0.2-0.13,0.43-0.23,0.67-0.3c0.26-0.07,0.51-0.13,0.77-0.17c0.25-0.04,0.51-0.07,0.75-0.1
		c0.25-0.02,0.47-0.06,0.66-0.11c0.19-0.05,0.34-0.11,0.46-0.2c0.11-0.09,0.16-0.23,0.16-0.41c0-0.18-0.03-0.33-0.09-0.43
		c-0.06-0.11-0.14-0.2-0.24-0.25c-0.1-0.07-0.21-0.11-0.35-0.12c-0.13-0.02-0.27-0.03-0.42-0.03c-0.34,0-0.6,0.07-0.79,0.21
		c-0.19,0.14-0.31,0.38-0.34,0.72H52.64z M56.58,19.46c-0.07,0.06-0.16,0.11-0.28,0.16c-0.1,0.03-0.22,0.06-0.35,0.08
		c-0.12,0.02-0.25,0.04-0.38,0.06c-0.14,0.02-0.27,0.04-0.41,0.06c-0.13,0.02-0.26,0.05-0.39,0.1c-0.12,0.04-0.23,0.09-0.32,0.17
		c-0.09,0.06-0.16,0.14-0.21,0.25c-0.05,0.1-0.08,0.23-0.08,0.39c0,0.15,0.03,0.28,0.08,0.39c0.05,0.1,0.13,0.19,0.23,0.25
		c0.1,0.06,0.21,0.1,0.34,0.12c0.13,0.02,0.26,0.03,0.4,0.03c0.34,0,0.59-0.05,0.78-0.17c0.19-0.11,0.32-0.24,0.41-0.39
		c0.09-0.16,0.14-0.32,0.16-0.48c0.02-0.16,0.04-0.29,0.04-0.38V19.46z M61.77,16.3v-1.86h-1.7v1.86h-1.04v1.14h1.04v3.66
		c0,0.31,0.05,0.56,0.16,0.75c0.1,0.19,0.24,0.34,0.42,0.45c0.18,0.1,0.39,0.17,0.62,0.2c0.24,0.04,0.49,0.06,0.75,0.06
		c0.17,0,0.34,0,0.51-0.01c0.18-0.01,0.34-0.02,0.48-0.05v-1.32c-0.08,0.01-0.16,0.03-0.25,0.04c-0.09,0.01-0.18,0.01-0.28,0.01
		c-0.29,0-0.48-0.05-0.57-0.14c-0.1-0.1-0.14-0.29-0.14-0.58v-3.07h1.25V16.3H61.77z M68.68,19.4c0-0.25,0.02-0.49,0.07-0.73
		c0.05-0.24,0.13-0.45,0.24-0.64c0.12-0.18,0.27-0.33,0.47-0.44c0.19-0.12,0.43-0.18,0.72-0.18c0.29,0,0.53,0.06,0.72,0.18
		c0.2,0.11,0.35,0.26,0.47,0.44c0.12,0.18,0.2,0.4,0.25,0.64c0.05,0.24,0.07,0.48,0.07,0.73c0,0.25-0.02,0.49-0.07,0.74
		c-0.05,0.23-0.13,0.44-0.25,0.64c-0.11,0.18-0.27,0.33-0.47,0.44c-0.19,0.11-0.43,0.17-0.72,0.17c-0.29,0-0.53-0.05-0.72-0.17
		c-0.19-0.11-0.35-0.26-0.47-0.44c-0.11-0.19-0.19-0.41-0.24-0.64C68.7,19.9,68.68,19.65,68.68,19.4L68.68,19.4z M66.97,19.4
		c0,0.5,0.07,0.95,0.23,1.34c0.15,0.4,0.37,0.75,0.65,1.04c0.28,0.28,0.62,0.5,1.01,0.65c0.39,0.15,0.83,0.23,1.32,0.23
		c0.49,0,0.93-0.08,1.32-0.23c0.4-0.15,0.74-0.37,1.02-0.65c0.28-0.29,0.5-0.63,0.65-1.04c0.15-0.4,0.23-0.85,0.23-1.34
		s-0.07-0.94-0.23-1.34c-0.15-0.41-0.37-0.75-0.65-1.03c-0.28-0.29-0.62-0.51-1.02-0.66c-0.39-0.16-0.83-0.24-1.32-0.24
		c-0.49,0-0.93,0.08-1.32,0.24c-0.39,0.15-0.73,0.37-1.01,0.66c-0.28,0.28-0.5,0.63-0.65,1.03C67.05,18.46,66.97,18.91,66.97,19.4
		L66.97,19.4z M74.5,16.3v6.2h1.7v-3.25c0-0.63,0.11-1.08,0.31-1.35c0.21-0.28,0.54-0.42,1.01-0.42c0.41,0,0.69,0.13,0.85,0.38
		c0.16,0.25,0.24,0.63,0.24,1.14v3.5h1.7v-3.82c0-0.38-0.03-0.73-0.11-1.04c-0.06-0.32-0.18-0.59-0.35-0.8
		c-0.17-0.22-0.4-0.4-0.69-0.52c-0.29-0.13-0.66-0.19-1.12-0.19c-0.36,0-0.71,0.08-1.06,0.25c-0.34,0.16-0.62,0.42-0.84,0.78h-0.04
		V16.3H74.5z M93.29,22.5l2.3-8.57h-1.85l-1.41,5.9h-0.02l-1.46-5.9h-1.76l-1.49,5.83h-0.02l-1.36-5.83h-1.88l2.27,8.57h1.91
		l1.43-5.83h0.02l1.45,5.83H93.29z M96.28,13.93v8.57h1.7v-3.25c0-0.63,0.11-1.08,0.31-1.35c0.21-0.28,0.54-0.42,1.01-0.42
		c0.41,0,0.69,0.13,0.85,0.38c0.16,0.25,0.24,0.63,0.24,1.14v3.5h1.7v-3.82c0-0.38-0.04-0.73-0.11-1.04
		c-0.06-0.32-0.18-0.59-0.35-0.8c-0.17-0.22-0.4-0.4-0.7-0.52c-0.29-0.13-0.66-0.19-1.12-0.19c-0.32,0-0.65,0.08-0.98,0.25
		c-0.34,0.16-0.61,0.42-0.83,0.78h-0.04v-3.23H96.28z M103.32,18.2c0.03-0.4,0.13-0.73,0.3-1c0.18-0.26,0.4-0.48,0.67-0.64
		c0.27-0.16,0.58-0.27,0.91-0.34c0.34-0.07,0.69-0.11,1.03-0.11c0.31,0,0.63,0.02,0.95,0.07c0.32,0.04,0.61,0.12,0.88,0.25
		c0.26,0.12,0.48,0.31,0.65,0.54c0.17,0.22,0.25,0.52,0.25,0.9v3.23c0,0.28,0.02,0.55,0.05,0.8c0.03,0.25,0.09,0.45,0.17,0.57h-1.73
		c-0.03-0.1-0.06-0.19-0.08-0.29c-0.02-0.1-0.03-0.21-0.04-0.31c-0.27,0.28-0.59,0.48-0.96,0.59c-0.37,0.11-0.75,0.17-1.13,0.17
		c-0.3,0-0.57-0.04-0.83-0.11c-0.25-0.07-0.48-0.18-0.67-0.34c-0.19-0.15-0.34-0.34-0.46-0.57c-0.1-0.23-0.16-0.51-0.16-0.83
		c0-0.35,0.06-0.64,0.18-0.86c0.13-0.23,0.29-0.42,0.48-0.55c0.2-0.13,0.43-0.23,0.67-0.3c0.26-0.07,0.51-0.13,0.77-0.17
		c0.25-0.04,0.51-0.07,0.75-0.1c0.25-0.02,0.47-0.06,0.66-0.11c0.2-0.05,0.35-0.11,0.46-0.2c0.11-0.09,0.16-0.23,0.16-0.41
		c0-0.18-0.03-0.33-0.1-0.43c-0.05-0.11-0.13-0.2-0.24-0.25c-0.1-0.07-0.21-0.11-0.35-0.12c-0.13-0.02-0.27-0.03-0.42-0.03
		c-0.34,0-0.6,0.07-0.79,0.21c-0.19,0.14-0.31,0.38-0.34,0.72H103.32z M107.26,19.46c-0.07,0.06-0.16,0.11-0.28,0.16
		c-0.1,0.03-0.22,0.06-0.35,0.08c-0.12,0.02-0.25,0.04-0.38,0.06c-0.14,0.02-0.27,0.04-0.41,0.06c-0.13,0.02-0.26,0.05-0.39,0.1
		c-0.12,0.04-0.23,0.09-0.32,0.17c-0.09,0.06-0.16,0.14-0.21,0.25c-0.05,0.1-0.08,0.23-0.08,0.39c0,0.15,0.03,0.28,0.08,0.39
		c0.06,0.1,0.13,0.19,0.23,0.25c0.1,0.06,0.21,0.1,0.34,0.12c0.13,0.02,0.26,0.03,0.4,0.03c0.34,0,0.59-0.05,0.78-0.17
		c0.19-0.11,0.32-0.24,0.41-0.39c0.09-0.16,0.14-0.32,0.16-0.48c0.02-0.16,0.04-0.29,0.04-0.38V19.46z M112.45,16.3v-1.86h-1.7v1.86
		h-1.03v1.14h1.03v3.66c0,0.31,0.05,0.56,0.16,0.75c0.1,0.19,0.24,0.34,0.42,0.45c0.18,0.1,0.39,0.17,0.62,0.2
		c0.24,0.04,0.49,0.06,0.75,0.06c0.17,0,0.34,0,0.52-0.01c0.17-0.01,0.34-0.02,0.48-0.05v-1.32c-0.08,0.01-0.16,0.03-0.25,0.04
		c-0.09,0.01-0.18,0.01-0.28,0.01c-0.28,0-0.48-0.05-0.57-0.14c-0.1-0.1-0.15-0.29-0.15-0.58v-3.07h1.25V16.3H112.45z M115.83,20.48
		h-1.62c0.02,0.41,0.11,0.76,0.28,1.04c0.18,0.27,0.39,0.49,0.66,0.66c0.27,0.17,0.58,0.29,0.92,0.36c0.34,0.07,0.7,0.11,1.06,0.11
		c0.35,0,0.69-0.04,1.03-0.11c0.34-0.06,0.65-0.18,0.91-0.35c0.27-0.17,0.48-0.39,0.64-0.66c0.17-0.28,0.25-0.63,0.25-1.03
		c0-0.29-0.06-0.53-0.17-0.72c-0.11-0.2-0.26-0.36-0.45-0.49c-0.18-0.14-0.4-0.25-0.64-0.32c-0.23-0.08-0.47-0.15-0.72-0.2
		c-0.24-0.06-0.48-0.11-0.71-0.16c-0.23-0.05-0.44-0.1-0.62-0.16c-0.18-0.07-0.32-0.15-0.43-0.24c-0.11-0.09-0.17-0.22-0.17-0.37
		c0-0.13,0.03-0.23,0.1-0.3c0.06-0.08,0.14-0.14,0.23-0.18c0.1-0.04,0.2-0.06,0.31-0.07c0.11-0.02,0.21-0.02,0.31-0.02
		c0.31,0,0.57,0.06,0.79,0.18c0.22,0.11,0.35,0.33,0.37,0.66h1.62c-0.04-0.39-0.13-0.7-0.3-0.95c-0.16-0.26-0.36-0.46-0.61-0.61
		c-0.25-0.15-0.53-0.26-0.85-0.32c-0.31-0.06-0.64-0.09-0.97-0.09s-0.66,0.03-0.99,0.09c-0.32,0.06-0.61,0.16-0.86,0.31
		c-0.26,0.14-0.47,0.34-0.62,0.6c-0.15,0.25-0.23,0.58-0.23,0.98c0,0.27,0.05,0.5,0.17,0.7c0.11,0.18,0.26,0.34,0.44,0.47
		c0.18,0.12,0.39,0.22,0.62,0.3c0.24,0.07,0.48,0.13,0.73,0.19c0.61,0.13,1.08,0.25,1.41,0.38c0.34,0.13,0.52,0.32,0.52,0.57
		c0,0.15-0.03,0.28-0.1,0.39c-0.07,0.09-0.16,0.18-0.28,0.24c-0.1,0.06-0.22,0.1-0.36,0.13c-0.13,0.02-0.25,0.03-0.37,0.03
		c-0.17,0-0.33-0.02-0.49-0.06c-0.15-0.04-0.29-0.1-0.41-0.18c-0.12-0.09-0.22-0.2-0.3-0.32C115.86,20.83,115.83,20.67,115.83,20.48
		L115.83,20.48z M123.29,19.19l1.12-3.14h0.02l1.08,3.14H123.29z M123.47,13.93l-3.24,8.57h1.9l0.67-1.91h3.2l0.65,1.91h1.96
		l-3.2-8.57H123.47z M132.3,21.38c-0.27,0-0.5-0.05-0.7-0.17c-0.19-0.11-0.35-0.25-0.47-0.43c-0.11-0.18-0.2-0.4-0.25-0.64
		c-0.05-0.24-0.07-0.48-0.07-0.73c0-0.25,0.02-0.5,0.07-0.74c0.05-0.24,0.13-0.45,0.24-0.64c0.12-0.18,0.27-0.33,0.45-0.44
		c0.19-0.12,0.43-0.18,0.71-0.18c0.27,0,0.5,0.06,0.68,0.18c0.19,0.11,0.35,0.26,0.46,0.45c0.12,0.18,0.21,0.4,0.25,0.64
		c0.06,0.24,0.08,0.48,0.08,0.73c0,0.25-0.02,0.49-0.07,0.73c-0.05,0.24-0.13,0.45-0.25,0.64c-0.11,0.18-0.26,0.32-0.46,0.43
		C132.81,21.33,132.58,21.38,132.3,21.38L132.3,21.38z M129.17,16.3v8.38h1.7v-2.94h0.02c0.21,0.3,0.47,0.54,0.79,0.7
		c0.33,0.15,0.68,0.23,1.07,0.23c0.46,0,0.85-0.09,1.19-0.27c0.35-0.18,0.63-0.41,0.86-0.71c0.23-0.3,0.4-0.64,0.52-1.02
		c0.11-0.38,0.17-0.79,0.17-1.2c0-0.44-0.06-0.86-0.17-1.26c-0.11-0.41-0.29-0.76-0.52-1.07c-0.23-0.31-0.52-0.55-0.88-0.74
		c-0.35-0.18-0.77-0.27-1.26-0.27c-0.39,0-0.74,0.07-1.06,0.23c-0.32,0.15-0.58,0.4-0.79,0.74h-0.02V16.3H129.17z M139.64,21.38
		c-0.27,0-0.5-0.05-0.7-0.17c-0.19-0.11-0.35-0.25-0.47-0.43c-0.11-0.18-0.2-0.4-0.25-0.64c-0.05-0.24-0.07-0.48-0.07-0.73
		c0-0.25,0.02-0.5,0.07-0.74c0.05-0.24,0.13-0.45,0.24-0.64c0.12-0.18,0.27-0.33,0.45-0.44c0.19-0.12,0.43-0.18,0.71-0.18
		c0.27,0,0.5,0.06,0.68,0.18c0.19,0.11,0.35,0.26,0.47,0.45c0.12,0.18,0.2,0.4,0.25,0.64c0.06,0.24,0.09,0.48,0.09,0.73
		c0,0.25-0.03,0.49-0.07,0.73c-0.05,0.24-0.13,0.45-0.25,0.64c-0.11,0.18-0.27,0.32-0.46,0.43
		C140.15,21.33,139.91,21.38,139.64,21.38L139.64,21.38z M136.5,16.3v8.38h1.7v-2.94h0.02c0.21,0.3,0.47,0.54,0.79,0.7
		c0.33,0.15,0.68,0.23,1.07,0.23c0.46,0,0.86-0.09,1.19-0.27c0.34-0.18,0.63-0.41,0.85-0.71c0.23-0.3,0.4-0.64,0.51-1.02
		c0.11-0.38,0.17-0.79,0.17-1.2c0-0.44-0.06-0.86-0.17-1.26c-0.11-0.41-0.28-0.76-0.51-1.07c-0.24-0.31-0.52-0.55-0.88-0.74
		c-0.35-0.18-0.77-0.27-1.26-0.27c-0.38,0-0.74,0.07-1.06,0.23c-0.32,0.15-0.59,0.4-0.79,0.74h-0.02V16.3H136.5z M136.5,16.3"/>
</g>
</svg>
